<svg width="56" height="55" viewBox="0 0 56 55" fill="none" xmlns="http://www.w3.org/2000/svg">
<g id="FAB">
<g id="Ellipse 6" filter="url(#filter0_dii_1707_2195)">
<circle cx="28" cy="22" r="20" transform="rotate(90 28 22)" fill="url(#paint0_radial_1707_2195)"/>
</g>
<g id="Layer 17">
<path id="Vector" d="M34.3416 20.7891V23.1396C34.3418 23.1894 34.3322 23.2388 34.3134 23.2849C34.2946 23.331 34.267 23.3729 34.2321 23.4082C34.1972 23.4435 34.1557 23.4715 34.1101 23.4906C34.0645 23.5097 34.0155 23.5196 33.9661 23.5196H33.2695C33.1695 23.5196 33.0737 23.4795 33.003 23.4083C32.9324 23.337 32.8927 23.2404 32.8927 23.1396V23.009C32.8927 22.9082 32.853 22.8116 32.7823 22.7403C32.7116 22.669 32.6158 22.629 32.5159 22.629H29.0198C28.9199 22.629 28.824 22.669 28.7533 22.7403C28.6827 22.8116 28.643 22.9082 28.643 23.009V28.1016C28.643 28.2024 28.6827 28.2991 28.7533 28.3703C28.824 28.4416 28.9199 28.4816 29.0198 28.4816H29.6672C29.7166 28.4815 29.7656 28.4911 29.8113 28.5101C29.857 28.529 29.8986 28.5569 29.9336 28.5921C29.9686 28.6273 29.9963 28.6691 30.0153 28.7151C30.0343 28.7611 30.044 28.8105 30.044 28.8603V29.5628C30.044 29.6636 30.0043 29.7603 29.9336 29.8315C29.863 29.9028 29.7671 29.9428 29.6672 29.9428H26.1711C26.1217 29.9428 26.0728 29.933 26.0271 29.9139C25.9815 29.8948 25.94 29.8667 25.9051 29.8314C25.8703 29.7961 25.8426 29.7542 25.8238 29.7081C25.805 29.662 25.7954 29.6127 25.7956 29.5628V28.8616C25.7956 28.7612 25.8352 28.6649 25.9056 28.5938C25.976 28.5228 26.0715 28.4829 26.1711 28.4829H26.8185C26.9184 28.4826 27.014 28.4424 27.0846 28.3713C27.1552 28.3001 27.195 28.2036 27.1953 28.1029V23.0103C27.1953 22.9095 27.1556 22.8129 27.085 22.7416C27.0143 22.6704 26.9185 22.6303 26.8185 22.6303H23.4804C23.3805 22.6303 23.2847 22.6704 23.214 22.7416C23.1433 22.8129 23.1036 22.9095 23.1036 23.0103V23.1409C23.1036 23.2417 23.0639 23.3383 22.9933 23.4096C22.9226 23.4808 22.8268 23.5209 22.7268 23.5209H22.0315C21.9316 23.5209 21.8357 23.4808 21.7651 23.4096C21.6944 23.3383 21.6547 23.2417 21.6547 23.1409V20.7904C21.6547 20.6897 21.6944 20.593 21.7651 20.5218C21.8357 20.4505 21.9316 20.4105 22.0315 20.4105H22.7268C22.8268 20.4105 22.9226 20.4505 22.9933 20.5218C23.0639 20.593 23.1036 20.6897 23.1036 20.7904C23.1036 20.8912 23.1433 20.9879 23.214 21.0591C23.2847 21.1304 23.3805 21.1704 23.4804 21.1704H26.8224C26.9224 21.1704 27.0182 21.1304 27.0889 21.0591C27.1595 20.9879 27.1992 20.8912 27.1992 20.7904V16.433C27.1992 16.3322 27.1595 16.2355 27.0889 16.1643C27.0182 16.093 26.9224 16.053 26.8224 16.053H26.175C26.1256 16.053 26.0766 16.0432 26.031 16.024C25.9854 16.0049 25.9439 15.9769 25.909 15.9416C25.8741 15.9063 25.8465 15.8644 25.8277 15.8183C25.8089 15.7722 25.7993 15.7228 25.7995 15.673V14.9705C25.7995 14.87 25.8391 14.7737 25.9095 14.7027C25.9799 14.6317 26.0754 14.5918 26.175 14.5918H29.6711C29.7205 14.5916 29.7695 14.6013 29.8152 14.6202C29.8609 14.6392 29.9024 14.6671 29.9375 14.7022C29.9725 14.7374 30.0002 14.7792 30.0192 14.8253C30.0381 14.8713 30.0479 14.9206 30.0479 14.9705V15.673C30.0479 15.7738 30.0082 15.8704 29.9375 15.9417C29.8669 16.013 29.771 16.053 29.6711 16.053H29.0237C28.9237 16.053 28.8279 16.093 28.7572 16.1643C28.6866 16.2355 28.6469 16.3322 28.6469 16.433V20.7891C28.6469 20.8899 28.6866 20.9866 28.7572 21.0578C28.8279 21.1291 28.9237 21.1691 29.0237 21.1691H32.5198C32.6197 21.1691 32.7155 21.1291 32.7862 21.0578C32.8569 20.9866 32.8966 20.8899 32.8966 20.7891C32.8966 20.6884 32.9363 20.5917 33.0069 20.5204C33.0776 20.4492 33.1734 20.4092 33.2734 20.4092H33.97C34.069 20.4105 34.1635 20.4512 34.2331 20.5223C34.3026 20.5934 34.3416 20.6893 34.3416 20.7891Z" fill="white"/>
</g>
</g>
<defs>
<filter id="filter0_dii_1707_2195" x="0.719998" y="0.32" width="54.56" height="54.56" filterUnits="userSpaceOnUse" color-interpolation-filters="sRGB">
<feFlood flood-opacity="0" result="BackgroundImageFix"/>
<feColorMatrix in="SourceAlpha" type="matrix" values="0 0 0 0 0 0 0 0 0 0 0 0 0 0 0 0 0 0 127 0" result="hardAlpha"/>
<feOffset dy="5.6"/>
<feGaussianBlur stdDeviation="3.64"/>
<feComposite in2="hardAlpha" operator="out"/>
<feColorMatrix type="matrix" values="0 0 0 0 0.362381 0 0 0 0 0.483366 0 0 0 0 0.360054 0 0 0 0.41 0"/>
<feBlend mode="normal" in2="BackgroundImageFix" result="effect1_dropShadow_1707_2195"/>
<feBlend mode="normal" in="SourceGraphic" in2="effect1_dropShadow_1707_2195" result="shape"/>
<feColorMatrix in="SourceAlpha" type="matrix" values="0 0 0 0 0 0 0 0 0 0 0 0 0 0 0 0 0 0 127 0" result="hardAlpha"/>
<feOffset dy="3.2"/>
<feGaussianBlur stdDeviation="1.6"/>
<feComposite in2="hardAlpha" operator="arithmetic" k2="-1" k3="1"/>
<feColorMatrix type="matrix" values="0 0 0 0 0.656764 0 0 0 0 0.881071 0 0 0 0 0.653604 0 0 0 1 0"/>
<feBlend mode="normal" in2="shape" result="effect2_innerShadow_1707_2195"/>
<feColorMatrix in="SourceAlpha" type="matrix" values="0 0 0 0 0 0 0 0 0 0 0 0 0 0 0 0 0 0 127 0" result="hardAlpha"/>
<feOffset dy="-1.6"/>
<feGaussianBlur stdDeviation="1.6"/>
<feComposite in2="hardAlpha" operator="arithmetic" k2="-1" k3="1"/>
<feColorMatrix type="matrix" values="0 0 0 0 0.379729 0 0 0 0 0.626107 0 0 0 0 0.374991 0 0 0 1 0"/>
<feBlend mode="normal" in2="effect2_innerShadow_1707_2195" result="effect3_innerShadow_1707_2195"/>
</filter>
<radialGradient id="paint0_radial_1707_2195" cx="0" cy="0" r="1" gradientUnits="userSpaceOnUse" gradientTransform="translate(28 22) rotate(90) scale(20)">
<stop stop-color="#88D487"/>
<stop offset="1" stop-color="#74B173"/>
</radialGradient>
</defs>
</svg>
