<svg width="70" height="70" viewBox="0 0 70 70" fill="none" xmlns="http://www.w3.org/2000/svg">
<g id="FAB">
<g id="Ellipse 6" filter="url(#filter0_dii_1502_1067)">
<circle cx="35" cy="28" r="25" transform="rotate(90 35 28)" fill="url(#paint0_radial_1502_1067)"/>
</g>
<g id="Layer 17">
<path id="Vector" d="M42.9273 26.4862V29.4242C42.9275 29.4865 42.9155 29.5483 42.892 29.6059C42.8685 29.6635 42.834 29.7159 42.7903 29.76C42.7467 29.8041 42.6949 29.8391 42.6379 29.863C42.5808 29.8869 42.5196 29.8992 42.4579 29.8992H41.5871C41.4622 29.8992 41.3424 29.8492 41.254 29.7601C41.1657 29.671 41.1161 29.5502 41.1161 29.4242V29.261C41.1161 29.135 41.0665 29.0142 40.9781 28.9251C40.8898 28.8361 40.77 28.786 40.6451 28.786H36.275C36.1501 28.786 36.0303 28.8361 35.9419 28.9251C35.8536 29.0142 35.804 29.135 35.804 29.261V35.6268C35.804 35.7528 35.8536 35.8736 35.9419 35.9627C36.0303 36.0517 36.1501 36.1018 36.275 36.1018H37.0843C37.146 36.1016 37.2072 36.1137 37.2644 36.1373C37.3215 36.161 37.3734 36.1959 37.4172 36.2398C37.461 36.2838 37.4957 36.3361 37.5194 36.3936C37.5431 36.4512 37.5553 36.5128 37.5553 36.5751V37.4533C37.5553 37.5793 37.5056 37.7001 37.4173 37.7892C37.329 37.8782 37.2092 37.9283 37.0843 37.9283H32.7141C32.6524 37.9283 32.5912 37.916 32.5341 37.8921C32.4771 37.8682 32.4253 37.8332 32.3817 37.7891C32.3381 37.7449 32.3035 37.6926 32.28 37.6349C32.2565 37.5773 32.2445 37.5156 32.2448 37.4533V36.5768C32.2448 36.4512 32.2942 36.3308 32.3822 36.2421C32.4703 36.1533 32.5897 36.1034 32.7141 36.1034H33.5234C33.6482 36.103 33.7678 36.0528 33.856 35.9638C33.9442 35.8748 33.994 35.7543 33.9944 35.6284V29.2626C33.9944 29.1367 33.9448 29.0159 33.8565 28.9268C33.7681 28.8377 33.6483 28.7877 33.5234 28.7877H29.3508C29.2259 28.7877 29.1061 28.8377 29.0177 28.9268C28.9294 29.0159 28.8798 29.1367 28.8798 29.2626V29.4259C28.8798 29.5518 28.8302 29.6727 28.7418 29.7617C28.6535 29.8508 28.5337 29.9009 28.4088 29.9009H27.5396C27.4147 29.9009 27.2949 29.8508 27.2066 29.7617C27.1182 29.6727 27.0686 29.5518 27.0686 29.4259V26.4878C27.0686 26.3618 27.1182 26.241 27.2066 26.1519C27.2949 26.0629 27.4147 26.0128 27.5396 26.0128H28.4088C28.5337 26.0128 28.6535 26.0629 28.7418 26.1519C28.8302 26.241 28.8798 26.3618 28.8798 26.4878C28.8798 26.6138 28.9294 26.7346 29.0177 26.8237C29.1061 26.9128 29.2259 26.9628 29.3508 26.9628H33.5283C33.6532 26.9628 33.773 26.9128 33.8613 26.8237C33.9497 26.7346 33.9993 26.6138 33.9993 26.4878V21.041C33.9993 20.915 33.9497 20.7942 33.8613 20.7051C33.773 20.616 33.6532 20.566 33.5283 20.566H32.719C32.6572 20.566 32.5961 20.5537 32.539 20.5298C32.4819 20.5059 32.4301 20.4709 32.3865 20.4268C32.3429 20.3827 32.3084 20.3303 32.2849 20.2727C32.2614 20.215 32.2494 20.1533 32.2496 20.091V19.2129C32.2496 19.0873 32.2991 18.9669 32.3871 18.8781C32.4751 18.7894 32.5945 18.7395 32.719 18.7395H37.0891C37.1509 18.7393 37.2121 18.7514 37.2692 18.7751C37.3264 18.7988 37.3783 18.8336 37.4221 18.8776C37.4658 18.9215 37.5005 18.9738 37.5242 19.0313C37.5479 19.0889 37.5601 19.1506 37.5601 19.2129V20.091C37.5601 20.217 37.5105 20.3378 37.4222 20.4269C37.3338 20.516 37.214 20.566 37.0891 20.566H36.2798C36.1549 20.566 36.0351 20.616 35.9468 20.7051C35.8585 20.7942 35.8088 20.915 35.8088 21.041V26.4862C35.8088 26.6122 35.8585 26.733 35.9468 26.822C36.0351 26.9111 36.1549 26.9612 36.2798 26.9612H40.6499C40.7749 26.9612 40.8947 26.9111 40.983 26.822C41.0713 26.733 41.1209 26.6122 41.1209 26.4862C41.1209 26.3602 41.1706 26.2394 41.2589 26.1503C41.3472 26.0612 41.467 26.0112 41.5919 26.0112H42.4627C42.5865 26.0129 42.7047 26.0637 42.7916 26.1526C42.8785 26.2415 42.9273 26.3613 42.9273 26.4862Z" fill="white"/>
</g>
</g>
<defs>
<filter id="filter0_dii_1502_1067" x="0.9" y="0.9" width="68.2" height="68.2" filterUnits="userSpaceOnUse" color-interpolation-filters="sRGB">
<feFlood flood-opacity="0" result="BackgroundImageFix"/>
<feColorMatrix in="SourceAlpha" type="matrix" values="0 0 0 0 0 0 0 0 0 0 0 0 0 0 0 0 0 0 127 0" result="hardAlpha"/>
<feOffset dy="7"/>
<feGaussianBlur stdDeviation="4.55"/>
<feComposite in2="hardAlpha" operator="out"/>
<feColorMatrix type="matrix" values="0 0 0 0 0.362381 0 0 0 0 0.483366 0 0 0 0 0.360054 0 0 0 0.41 0"/>
<feBlend mode="normal" in2="BackgroundImageFix" result="effect1_dropShadow_1502_1067"/>
<feBlend mode="normal" in="SourceGraphic" in2="effect1_dropShadow_1502_1067" result="shape"/>
<feColorMatrix in="SourceAlpha" type="matrix" values="0 0 0 0 0 0 0 0 0 0 0 0 0 0 0 0 0 0 127 0" result="hardAlpha"/>
<feOffset dy="4"/>
<feGaussianBlur stdDeviation="2"/>
<feComposite in2="hardAlpha" operator="arithmetic" k2="-1" k3="1"/>
<feColorMatrix type="matrix" values="0 0 0 0 0.656764 0 0 0 0 0.881071 0 0 0 0 0.653604 0 0 0 1 0"/>
<feBlend mode="normal" in2="shape" result="effect2_innerShadow_1502_1067"/>
<feColorMatrix in="SourceAlpha" type="matrix" values="0 0 0 0 0 0 0 0 0 0 0 0 0 0 0 0 0 0 127 0" result="hardAlpha"/>
<feOffset dy="-2"/>
<feGaussianBlur stdDeviation="2"/>
<feComposite in2="hardAlpha" operator="arithmetic" k2="-1" k3="1"/>
<feColorMatrix type="matrix" values="0 0 0 0 0.379729 0 0 0 0 0.626107 0 0 0 0 0.374991 0 0 0 1 0"/>
<feBlend mode="normal" in2="effect2_innerShadow_1502_1067" result="effect3_innerShadow_1502_1067"/>
</filter>
<radialGradient id="paint0_radial_1502_1067" cx="0" cy="0" r="1" gradientUnits="userSpaceOnUse" gradientTransform="translate(35 28) rotate(90) scale(25)">
<stop stop-color="#88D487"/>
<stop offset="1" stop-color="#74B173"/>
</radialGradient>
</defs>
</svg>
