<svg width="85" height="99" viewBox="0 0 85 99" fill="none" xmlns="http://www.w3.org/2000/svg">
<g id="Ellipse 14" filter="url(#filter0_d_604_7068)">
<path d="M37.9515 9.58162C41.6894 5.51585 48.066 5.21636 51.679 9.39347C59.0918 17.9638 64.7909 27.9177 68.4265 38.7169C72.0622 49.5161 73.5433 60.89 72.8228 72.1985C72.4716 77.7102 67.2121 81.3281 61.7765 80.3506L28.6753 74.3985C23.2396 73.4211 19.7815 68.1543 19.1348 62.6695C18.8615 60.351 18.3482 58.0583 17.5976 55.8289C16.8471 53.5994 15.8693 51.463 14.6848 49.4513C11.8827 44.6921 11.4516 38.4063 15.1895 34.3405L37.9515 9.58162Z" fill="#D80027"/>
</g>
<defs>
<filter id="filter0_d_604_7068" x="0.484619" y="0.393799" width="84.5151" height="98.1162" filterUnits="userSpaceOnUse" color-interpolation-filters="sRGB">
<feFlood flood-opacity="0" result="BackgroundImageFix"/>
<feColorMatrix in="SourceAlpha" type="matrix" values="0 0 0 0 0 0 0 0 0 0 0 0 0 0 0 0 0 0 127 0" result="hardAlpha"/>
<feOffset dy="6"/>
<feGaussianBlur stdDeviation="6"/>
<feComposite in2="hardAlpha" operator="out"/>
<feColorMatrix type="matrix" values="0 0 0 0 0.379085 0 0 0 0 0.411765 0 0 0 0 0.428105 0 0 0 0.7 0"/>
<feBlend mode="normal" in2="BackgroundImageFix" result="effect1_dropShadow_604_7068"/>
<feBlend mode="normal" in="SourceGraphic" in2="effect1_dropShadow_604_7068" result="shape"/>
</filter>
</defs>
</svg>
